<?xml version="1.0" standalone="no"?><!DOCTYPE svg PUBLIC "-//W3C//DTD SVG 1.1//EN" "http://www.w3.org/Graphics/SVG/1.1/DTD/svg11.dtd"><svg t="1632453201062" class="icon" viewBox="0 0 1024 1024" version="1.1" xmlns="http://www.w3.org/2000/svg" p-id="3456" xmlns:xlink="http://www.w3.org/1999/xlink" width="16" height="16"><defs><style type="text/css"></style></defs><path d="M511.015579 931.469584c-212.059743 0-384.589169-187.109492-384.589169-417.093467s172.529425-417.089373 384.589169-417.089373c212.066907 0 384.596332 187.105399 384.596332 417.089373S723.082486 931.469584 511.015579 931.469584zM511.015579 162.288177c-179.011047 0-324.653101 157.945265-324.653101 352.08794s145.641031 352.092034 324.653101 352.092034c179.019233 0 324.660264-157.949358 324.660264-352.092034S690.034812 162.288177 511.015579 162.288177zM512 92.605118c-243.126296 0-440.219163 127.9583-440.219163 285.803281 0 76.038814 45.827745 145.087423 120.417557 196.291618-3.130294-19.593244-4.854565-39.701211-4.854565-60.250222 0-194.143699 145.641031-352.08794 324.653101-352.08794 179.01821 0 324.659241 157.944242 324.659241 352.08794 0 20.547988-1.724271 40.656979-4.854565 60.250222 74.589812-51.204196 120.417557-120.252805 120.417557-196.291618C952.219163 220.563418 755.126296 92.605118 512 92.605118zM358.865297 514.452865m-106.618273 0a104.19 104.19 0 1 0 213.236546 0 104.19 104.19 0 1 0-213.236546 0ZM659.250692 514.452865m-106.618273 0a104.19 104.19 0 1 0 213.236546 0 104.19 104.19 0 1 0-213.236546 0ZM511.019673 695.482895c-44.607964-48.210002-90.963735-3.708462-109.506043 16.688077s-32.44904 40.793078-73.848938 46.355771c74.776054 36.804231 116.496248 20.396539 137.819902 0S487.73434 713.098087 511.019673 695.482895zM511.233544 695.482895c44.607964-48.210002 90.963735-3.708462 109.506043 16.688077 18.542308 20.396539 32.44904 40.793078 73.848938 46.355771-74.776054 36.804231-116.496248 20.396539-137.819902 0S534.517853 713.098087 511.233544 695.482895zM473.688439 748.32745c7.785314-10.026354 21.370727-16.688077 36.866652-16.688077s29.081339 6.661723 36.866652 16.688077c4.366448-5.624091 6.930853-12.294001 6.930853-19.469424 0-19.968797-19.608593-36.157501-43.797505-36.157501s-43.797505 16.188704-43.797505 36.157501C466.75861 736.034473 469.321992 742.704382 473.688439 748.32745zM462.369649 488.975611l88.004333 0 0 44.002167-88.004333 0 0-44.002167Z" p-id="3457" fill="#1296db"></path></svg>